<svg xmlns="http://www.w3.org/2000/svg" width="80" height="80" viewBox="0 0 80 80">
    <defs>
        <linearGradient id="bv9l2w22ea" x1="25.817%" x2="70.118%" y1="26.151%" y2="83.779%">
            <stop offset="0%" stop-color="#58B8BD"/>
            <stop offset="36%" stop-color="#59B4BC"/>
            <stop offset="58%" stop-color="#5BA8B8"/>
            <stop offset="79%" stop-color="#5E94B3"/>
            <stop offset="100%" stop-color="#6378AB"/>
        </linearGradient>
    </defs>
    <g fill="none" fill-rule="evenodd">
        <g>
            <g>
                <g fill="#E5F1FF">
                    <path d="M40 80c22.091 0 40-17.909 40-40S62.091 0 40 0 0 17.909 0 40s17.909 40 40 40z" transform="translate(-132 -2015) translate(132.002 2015.003)"/>
                </g>
                <g fill="url(#bv9l2w22ea)" fill-rule="nonzero" transform="translate(-132 -2015) translate(132.002 2015.003) translate(24.5 24.5)">
                    <path d="M29.799 10.057c.023.089-.104.249-.144.33-.295.547-.356 1.191-.507 1.785-.534 2.103-2.802 2.616-4.668 2.823-1.047.095-2.1.08-3.144-.046-2.016-.194-4.015-.466-5.934-1.164-.996-.347-1.877-.964-2.545-1.781-1.231-1.527-2.374-3.123-3.422-4.78-.165-.256-.321-.515-.494-.79.145-.045.263-.076.375-.119.739-.28 1.489-.547 2.222-.852.165-.07.27-.277.401-.422-.165-.097-.33-.262-.508-.282-.737-.094-1.48-.15-2.223-.165-.358.016-.701-.143-.92-.427-.966-1.1-2.107-1.895-3.676-1.648-.375.056-.757-.04-1.06-.269-.184-.125-.372-.252-.544-.395-.474-.422-.941-.831-1.412-1.246C1.404.444.95.386.76.505.5.67.595.912.613 1.14c.045.57.223 1.121.52 1.61.043.081.077.167.1.256L0 3.126c.175.154.292.25.399.352 1.048.99 1.685 2.17 1.469 3.655-.14.959-.44 1.894-.55 2.856-.268 2.21-.304 7.851 1.535 8.765.248.122.134-1.431.21-2.092.023-.387.184-.753.455-1.03.037.41.03.814.037 1.218.003 1.479.434 2.926 1.242 4.165.098.147.155.318.165.495.01 2.022 0 4.046.011 6.069.024.202-.079.399-.259.494-.276.174-.526.385-.745.627-.132.167-.225.36-.273.568-.065.221 0 .358.291.348.643-.021 1.288 0 1.93 0h1.034c.012-.165.015-.31.03-.45.184-1.726.343-3.461.57-5.174.087-.672.318-1.327.508-1.978.064-.29.33-.487.626-.466 1.101-.04 2.2-.155 3.297-.165.836.002 1.671.05 2.502.141.549.053 3.242.347 4.02.843v.038c.062.247.163.483.299.699.325 1.585.436 3.207.33 4.823-.012.18-.11.342-.264.435-.345.251-.662.537-.948.854-.165.2-.23.494-.358.788h1.691c.005.043.012.086.022.128h3.033v-.343c-.023-1.572-.044-3.145-.063-4.719.001-.214.023-.428.064-.638.165-.921.41-1.836.523-2.764.143-1.182.19-2.374.275-3.538 1.573-.08 3.132-.398 4.421-1.534l-.516.717c1.649-.587 2.158-.582 2.872-2.016.751-1.525.14-4.322-.086-5.24z"/>
                </g>
            </g>
        </g>
    </g>
</svg>
