<?xml version="1.0" encoding="UTF-8"?>
<svg width="264px" height="50px" viewBox="0 0 264 50" version="1.1" xmlns="http://www.w3.org/2000/svg" xmlns:xlink="http://www.w3.org/1999/xlink">
    <!-- Generator: Sketch 63.1 (92452) - https://sketch.com -->
    <title>Jungleworks-Full-Logo</title>
    <desc>Created with Sketch.</desc>
    <defs>
        <linearGradient x1="0.146436422%" y1="50.0000058%" x2="1742.67874%" y2="50.0000058%" id="linearGradient-1">
            <stop stop-color="#2E8D86" offset="2%"></stop>
            <stop stop-color="#3DBC79" offset="50%"></stop>
            <stop stop-color="#9BCF5F" offset="100%"></stop>
        </linearGradient>
        <linearGradient x1="-92.6525049%" y1="444.804014%" x2="1108.64714%" y2="444.804014%" id="linearGradient-2">
            <stop stop-color="#2E8D86" offset="2%"></stop>
            <stop stop-color="#3DBC79" offset="50%"></stop>
            <stop stop-color="#9BCF5F" offset="100%"></stop>
        </linearGradient>
        <linearGradient x1="-214.18332%" y1="441.028245%" x2="987.11633%" y2="441.028245%" id="linearGradient-3">
            <stop stop-color="#2E8D86" offset="2%"></stop>
            <stop stop-color="#3DBC79" offset="50%"></stop>
            <stop stop-color="#9BCF5F" offset="100%"></stop>
        </linearGradient>
        <linearGradient x1="-327.818792%" y1="341.649081%" x2="859.538591%" y2="341.649081%" id="linearGradient-4">
            <stop stop-color="#2E8D86" offset="2%"></stop>
            <stop stop-color="#3DBC79" offset="50%"></stop>
            <stop stop-color="#9BCF5F" offset="100%"></stop>
        </linearGradient>
        <linearGradient x1="-1279.52146%" y1="346.965716%" x2="2095.68545%" y2="346.965716%" id="linearGradient-5">
            <stop stop-color="#2E8D86" offset="2%"></stop>
            <stop stop-color="#3DBC79" offset="50%"></stop>
            <stop stop-color="#9BCF5F" offset="100%"></stop>
        </linearGradient>
        <linearGradient x1="-498.457127%" y1="434.885683%" x2="678.011748%" y2="434.885683%" id="linearGradient-6">
            <stop stop-color="#2E8D86" offset="2%"></stop>
            <stop stop-color="#3DBC79" offset="50%"></stop>
            <stop stop-color="#9BCF5F" offset="100%"></stop>
        </linearGradient>
        <linearGradient x1="-400.371443%" y1="441.223784%" x2="372.737204%" y2="441.223784%" id="linearGradient-7">
            <stop stop-color="#2E8D86" offset="2%"></stop>
            <stop stop-color="#3DBC79" offset="50%"></stop>
            <stop stop-color="#9BCF5F" offset="100%"></stop>
        </linearGradient>
        <linearGradient x1="-719.409742%" y1="434.274912%" x2="375.87214%" y2="434.274912%" id="linearGradient-8">
            <stop stop-color="#2E8D86" offset="2%"></stop>
            <stop stop-color="#3DBC79" offset="50%"></stop>
            <stop stop-color="#9BCF5F" offset="100%"></stop>
        </linearGradient>
        <linearGradient x1="-1285.96084%" y1="441.369903%" x2="400.616587%" y2="441.369903%" id="linearGradient-9">
            <stop stop-color="#2E8D86" offset="2%"></stop>
            <stop stop-color="#3DBC79" offset="50%"></stop>
            <stop stop-color="#9BCF5F" offset="100%"></stop>
        </linearGradient>
        <linearGradient x1="-1013.62705%" y1="346.775802%" x2="201.075756%" y2="346.775802%" id="linearGradient-10">
            <stop stop-color="#2E8D86" offset="2%"></stop>
            <stop stop-color="#3DBC79" offset="50%"></stop>
            <stop stop-color="#9BCF5F" offset="100%"></stop>
        </linearGradient>
        <linearGradient x1="-1260.83907%" y1="432.784793%" x2="99.9711556%" y2="432.784793%" id="linearGradient-11">
            <stop stop-color="#2E8D86" offset="2%"></stop>
            <stop stop-color="#3DBC79" offset="50%"></stop>
            <stop stop-color="#9BCF5F" offset="100%"></stop>
        </linearGradient>
        <linearGradient x1="49.9958753%" y1="13.3812684%" x2="49.9958753%" y2="84.866611%" id="linearGradient-12">
            <stop stop-color="#2E8D86" offset="2%"></stop>
            <stop stop-color="#3DBC79" offset="50%"></stop>
            <stop stop-color="#9BCF5F" offset="100%"></stop>
        </linearGradient>
    </defs>
    <g id="Jungleworks-Full-Logo" stroke="none" stroke-width="1" fill="none" fill-rule="evenodd">
        <g id="jungleworks_full" transform="translate(7.500000, 6.000000)" fill-rule="nonzero">
            <path d="M49.2908995,5.7566014 C49.5509869,5.7132535 49.9700166,5.64100699 50.5335393,5.56876049 C51.0735135,5.48240755 51.6194749,5.43871419 52.1663103,5.43871419 C52.6508931,5.43832743 53.1345143,5.48185333 53.6112404,5.56876049 C53.9915476,5.63853218 54.3517359,5.79148883 54.6660393,6.01668881 C54.9616712,6.24607624 55.1828687,6.55776366 55.3018086,6.91254545 C55.460454,7.39216468 55.5338103,7.89587785 55.5185481,8.40082343 L55.5185481,21.5785857 C55.5185481,23.6881836 54.9116774,25.2776066 53.6979362,26.3324056 C52.4841949,27.3872045 50.7069309,27.9218287 48.3516949,27.9218287 C47.1235044,27.9218287 46.1265026,27.7339878 45.3606897,27.3583059 C44.8557085,27.1411278 44.4348595,26.765913 44.1613977,26.2890577 C43.908802,25.8184468 43.7795537,25.2915116 43.7857159,24.7574318 C43.7739548,24.334153 43.8425984,23.9124852 43.9880061,23.514792 C44.091681,23.2030582 44.2534761,22.913788 44.464833,22.6622832 C44.9127614,22.7634283 45.3028925,22.8212255 45.6207771,22.8645734 C45.9708265,22.9058272 46.3231149,22.9251307 46.675576,22.9223706 C47.6003313,22.9223706 48.2649991,22.6911818 48.6695795,22.2288042 C49.07416,21.7664266 49.2764502,21.0873094 49.2764502,20.1770035 L49.2908995,5.7566014 Z" id="Path" fill="url(#linearGradient-1)"></path>
            <path d="M59.5788016,10.2792325 C59.9479875,10.1765561 60.3249114,10.1040708 60.705847,10.062493 C61.2327096,9.99238148 61.7637702,9.95858671 62.2952701,9.96118812 C62.7643838,9.95855525 63.2330003,9.99237293 63.6968523,10.062493 C64.078051,10.12058 64.4397633,10.2692289 64.7516512,10.495972 C65.0432046,10.7204441 65.2680115,11.0201866 65.4018698,11.3629301 C65.5720272,11.8249919 65.6505524,12.3157741 65.6330586,12.8078601 L65.6330586,20.4659895 C65.6330586,21.4340927 65.8642474,22.1276591 66.3410743,22.5466888 C66.8179012,22.9657185 67.4970184,23.1680087 68.4073243,23.1535594 C68.8548384,23.1635049 69.3017337,23.1149294 69.73666,23.0090664 C70.0096803,22.9367212 70.2756524,22.8400041 70.5313715,22.7200804 L70.5313715,10.2792325 C70.9005574,10.1765561 71.2774813,10.1040708 71.658417,10.062493 C72.1852795,9.99238148 72.7163401,9.95858671 73.24784,9.96118812 C73.7169538,9.95855525 74.1855702,9.99237293 74.6494222,10.062493 C75.0306209,10.12058 75.3923332,10.2692289 75.7042212,10.495972 C75.9956186,10.7240094 76.2243242,11.022321 76.368889,11.3629301 C76.5390465,11.8249919 76.6175716,12.3157741 76.6000778,12.8078601 L76.6000778,23.6303864 C76.6000778,24.815229 76.1088016,25.7110857 75.1117998,26.303507 C74.1955485,26.8675146 73.1884498,27.2683985 72.1352439,27.4883497 C70.9038716,27.7742338 69.6424325,27.9100811 68.3784257,27.8929301 C67.1842747,27.9083019 65.9935085,27.7624938 64.838347,27.459451 C63.828936,27.2156272 62.8799675,26.7681861 62.049632,26.1445647 C61.258789,25.5444764 60.6325107,24.7541728 60.2290201,23.8471259 C59.7955411,22.9079213 59.5932509,21.7808759 59.5932509,20.4515402 L59.5788016,10.2792325 Z" id="Path" fill="url(#linearGradient-2)"></path>
            <path d="M91.2516687,16.3623881 C91.2516687,15.6254738 91.0493785,15.0908497 90.6303488,14.7440664 C90.2113191,14.3972832 89.6477963,14.2238916 88.9397806,14.2238916 C88.4671695,14.2227775 87.9962899,14.2810307 87.5381984,14.3972832 C87.1089714,14.5002605 86.7024109,14.6814983 86.3389065,14.9319073 L86.3389065,27.3005087 C85.9697206,27.4031851 85.5927967,27.4756705 85.211861,27.5172483 C84.6849985,27.5873598 84.1539378,27.6211545 83.6224379,27.6185531 C83.1533242,27.621186 82.6847078,27.5873683 82.2208558,27.5172483 C81.8396571,27.4591613 81.4779447,27.3105124 81.1660568,27.0837692 C80.8746594,26.8557319 80.6459538,26.5574202 80.501389,26.2168112 C80.3312315,25.7547493 80.2527064,25.2639672 80.2702002,24.7718811 L80.2702002,14.0938479 C80.2702002,13.4580787 80.4002439,12.9234545 80.6747806,12.5333234 C80.9755981,12.0975694 81.3584069,11.7245763 81.801826,11.4351766 C82.7371288,10.8122908 83.7665484,10.3439293 84.8506285,10.0480437 C86.1763696,9.67619803 87.5485376,9.49616181 88.9253313,9.51341958 C91.6129012,9.51341958 93.6791512,10.1058409 95.1240813,11.2762343 C96.5690114,12.4466276 97.2914764,14.0793986 97.2914764,16.1745472 L97.2914764,27.3005087 C96.9222905,27.4031851 96.5453666,27.4756705 96.1644309,27.5172483 C95.6375684,27.5873598 95.1065078,27.6211545 94.5750079,27.6185531 C94.1058941,27.621186 93.6372777,27.5873683 93.1734257,27.5172483 C92.792227,27.4591613 92.4305147,27.3105124 92.1186267,27.0837692 C91.8272293,26.8557319 91.5985237,26.5574202 91.4539589,26.2168112 C91.2838014,25.7547493 91.2052763,25.2639672 91.2227701,24.7718811 L91.2516687,16.3623881 Z" id="Path" fill="url(#linearGradient-3)"></path>
            <path d="M109.486686,9.49897028 C110.734168,9.48422026 111.976615,9.65962456 113.171258,10.0191451 C114.166901,10.3077445 115.108829,10.7567466 115.959973,11.3484808 C116.396938,11.6458589 116.778393,12.0175324 117.087018,12.4466276 C117.361555,12.851208 117.491599,13.3713829 117.491599,14.0071521 L117.491599,26.4624493 C117.491599,27.7195385 117.26041,28.803236 116.783583,29.7279913 C116.318573,30.6252423 115.656659,31.4057073 114.847377,32.0109808 C113.979624,32.6376704 112.998034,33.0892021 111.957517,33.3403164 C110.799696,33.6292433 109.610764,33.7748268 108.417438,33.7738009 C106.250043,33.7738009 104.559475,33.4848094 103.331284,32.9068374 C102.103094,32.3288654 101.481774,31.3896608 101.481774,30.0747745 C101.46776,29.5726954 101.582149,29.07535 101.814108,28.6298444 C101.999044,28.2654619 102.260227,27.945143 102.57992,27.6906399 C103.317309,28.0944252 104.097624,28.4143058 104.906258,28.6442937 C105.77843,28.9040953 106.683784,29.0355176 107.593828,29.0344248 C108.879816,29.0344248 109.891267,28.8176853 110.65708,28.3986556 C111.422892,27.9796259 111.798574,27.2860594 111.798574,26.3324056 L111.798574,25.7688829 C110.830471,26.2023619 109.631179,26.4046521 108.244046,26.4046521 C107.209087,26.4062515 106.180293,26.2453501 105.195244,25.9278252 C104.2553,25.6190119 103.392877,25.1114142 102.666616,24.4395472 C101.900137,23.702919 101.307761,22.8044809 100.9327,21.8097745 C100.499221,20.7405262 100.268032,19.4689878 100.268032,17.9951591 C100.268032,16.550229 100.499221,15.2931399 100.961599,14.2238916 C101.387777,13.2061336 102.044099,12.3010324 102.879021,11.5796696 C103.729607,10.8574264 104.724764,10.3253626 105.79778,10.0191451 C106.993365,9.6571563 108.237622,9.48170287 109.486686,9.49897028 Z M111.68298,14.6573706 C111.451094,14.540052 111.209341,14.4433509 110.960515,14.3683846 C110.574567,14.2635147 110.175512,14.2148495 109.775672,14.2238916 C108.619728,14.2238916 107.738321,14.5562255 107.160349,15.2064441 C106.582377,15.8566626 106.293391,16.7958671 106.293391,17.9951591 C106.293391,19.3678427 106.582377,20.3648444 107.160349,20.971715 C107.737941,21.5791536 108.547815,21.9104653 109.385541,21.882021 C110.353644,21.882021 111.133906,21.6508322 111.697429,21.2029038 L111.68298,14.6573706 Z" id="Shape" fill="url(#linearGradient-4)"></path>
            <path d="M127.38937,27.3005087 C127.129282,27.3438566 126.739151,27.4161031 126.233426,27.502799 C125.722662,27.5897137 125.205456,27.6330024 124.687351,27.6330024 C124.218237,27.6356353 123.74962,27.6018176 123.285768,27.5316976 C122.90457,27.4736106 122.542857,27.3249617 122.230969,27.0982185 C121.939572,26.8701812 121.710866,26.5718695 121.566302,26.2312605 C121.396144,25.7691986 121.317619,25.2784165 121.335113,24.7863304 L121.335113,4.12383042 C121.5952,4.08048252 121.985331,4.00823601 122.491057,3.92154021 C123.00182,3.83462549 123.519027,3.79133672 124.037132,3.79133672 C124.506246,3.78870385 124.974862,3.82252153 125.438714,3.89264161 C125.819913,3.95072856 126.181625,4.09937746 126.493513,4.32612063 C126.784911,4.55415798 127.013616,4.85246963 127.158181,5.19307867 C127.328338,5.65514054 127.406864,6.14592266 127.38937,6.63800874 L127.38937,27.3005087 Z" id="Path" fill="url(#linearGradient-5)"></path>
            <path d="M140.350392,27.9073794 C139.026525,27.9214695 137.709088,27.7214143 136.449081,27.314958 C135.293116,26.9508295 134.225395,26.3505438 133.313583,25.5521434 C132.400408,24.741454 131.683899,23.733401 131.218434,22.604486 C130.712709,21.4196434 130.452622,20.0325105 130.452622,18.4430874 C130.452622,16.8825629 130.712709,15.5243287 131.218434,14.3972832 C132.117891,12.2976122 133.892244,10.6975264 136.073399,10.0191451 C137.131384,9.67094484 138.23966,9.50006531 139.353391,9.51341958 C140.523875,9.4981875 141.687917,9.68893392 142.792324,10.0769423 C143.773511,10.4245155 144.680386,10.9539339 145.465445,11.6374668 C146.212811,12.2972842 146.809147,13.1104687 147.21381,14.0216014 C147.63502,14.9720528 147.846916,16.0019686 147.83513,17.0415052 C147.83513,17.8506661 147.603941,18.4575367 147.156013,18.8910157 C146.708085,19.3244948 146.072316,19.5990315 145.263155,19.7146259 L136.463531,21.0295122 C136.724106,21.8179006 137.30707,22.4586359 138.067403,22.7923269 C138.935641,23.1965129 139.884068,23.3990416 140.841669,23.3847483 C141.774749,23.3907366 142.703956,23.2642476 143.601485,23.0090664 C144.342324,22.8081293 145.05568,22.5169636 145.725532,22.1421084 C146.120815,22.3953216 146.452155,22.7365529 146.693635,23.1391101 C146.952598,23.544462 147.088141,24.016353 147.083767,24.4973444 C147.083767,25.5665927 146.578041,26.3613042 145.595489,26.881479 C144.796113,27.2996809 143.931159,27.5782255 143.037962,27.7050892 C142.147238,27.828847 141.249606,27.8964106 140.350392,27.9073794 Z M139.353391,13.906007 C138.846835,13.8927138 138.343589,13.9913895 137.879562,14.194993 C137.497907,14.3664788 137.154107,14.6120501 136.868111,14.917458 C136.608549,15.2087413 136.407424,15.5472211 136.27569,15.9144598 C136.147614,16.2778473 136.069831,16.6570416 136.044501,17.0415052 L142.127656,16.0445035 C142.05541,15.5676766 141.795323,15.0908497 141.347394,14.628472 C140.899466,14.1660944 140.234798,13.906007 139.353391,13.906007 L139.353391,13.906007 Z" id="Shape" fill="url(#linearGradient-6)"></path>
            <path d="M160.593863,26.7947832 C160.191154,27.1130741 159.729592,27.3487654 159.235628,27.4883497 C158.577392,27.673566 157.896518,27.7659702 157.212726,27.7628864 C156.352353,27.7815588 155.495694,27.6444933 154.684099,27.3583059 C153.976083,27.0837692 153.499256,26.6936381 153.268067,26.2023619 C152.906489,25.3223336 152.602414,24.4197631 152.357761,23.5003427 C152.010978,22.2721521 151.678644,20.9139178 151.34631,19.4400892 C151.013976,17.9662605 150.696092,16.4779825 150.407106,14.9608059 C150.11812,13.4436294 149.872482,12.0998444 149.713539,10.9439003 C150.567167,10.1351488 151.697696,9.68335115 152.873601,9.68103147 C153.697212,9.68103147 154.390778,9.86887238 154.925402,10.2301049 C155.460026,10.5913374 155.79236,11.2271066 155.907955,12.1374126 C156.139143,13.9435752 156.341434,15.4318531 156.514825,16.6022465 C156.688217,17.7726399 156.81826,18.740743 156.919406,19.4776573 C157.020551,20.2145717 157.107247,20.7925437 157.165044,21.1826748 C157.222841,21.5728059 157.280638,21.8906906 157.323986,22.1218794 L157.468479,22.1218794 C157.540726,21.7461976 157.65632,21.1971241 157.844161,20.4602098 C158.032002,19.7232955 158.234292,18.9141346 158.465481,17.9893794 C158.69667,17.0646241 158.956757,16.0676224 159.216844,14.9839248 C159.476932,13.9002273 159.737019,12.830979 159.997107,11.7617308 C160.44528,11.5180736 160.914342,11.3149748 161.398689,11.1548601 C161.962482,10.9958762 162.547024,10.9228084 163.132605,10.9381206 C163.86451,10.9218919 164.592075,11.0546233 165.271101,11.3282517 C165.815481,11.5395223 166.235089,11.9856876 166.412596,12.541993 C166.701582,13.5823427 166.976119,14.5937937 167.236206,15.5907955 C167.496294,16.5877972 167.727483,17.4836538 167.944222,18.3361626 C168.160962,19.1886713 168.348802,19.9255857 168.507745,20.5758042 C168.666687,21.2260227 168.796731,21.7461976 168.868977,22.1218794 L169.042369,22.1218794 C169.302456,20.2868182 169.562544,18.3939598 169.808182,16.4288549 C170.05382,14.46375 170.285009,12.4552972 170.501748,10.4179458 C170.921205,10.1549144 171.379608,9.95984938 171.859983,9.83997378 C172.323142,9.7245722 172.798694,9.66634134 173.276014,9.66658142 C174.114073,9.66658142 174.793191,9.83997378 175.342264,10.2012063 C175.891337,10.5624388 176.165874,11.1693094 176.165874,12.0507168 C176.151795,12.6226558 176.093828,13.1926698 175.992483,13.7557343 C175.876888,14.5215472 175.717946,15.3740559 175.530105,16.3132605 C175.342264,17.252465 175.125524,18.2639161 174.865437,19.3042657 C174.60535,20.3446154 174.374161,21.3560664 174.114073,22.3241696 C173.853986,23.2922727 173.622797,24.1736801 173.391608,24.9683916 C173.16042,25.7631031 172.972579,26.3555245 172.799187,26.7890035 C172.466853,27.0779895 171.961128,27.3091783 171.267561,27.4825699 C170.545367,27.6679722 169.802424,27.7602331 169.056818,27.7571066 C167.062815,27.7571066 165.892421,27.2658304 165.531189,26.2688287 C165.386696,25.8353497 165.213304,25.3007255 164.996565,24.650507 C164.779825,24.0002885 164.563086,23.2778234 164.317448,22.4975612 C164.071809,21.717299 163.85507,20.9081381 163.63833,20.0556294 C163.421591,19.2031206 163.248199,18.3939598 163.103706,17.6136976 C162.944764,18.451757 162.742474,19.3042657 162.496836,20.2001224 C162.251198,21.095979 162.020009,21.9629371 161.774371,22.8009965 C161.528733,23.6390559 161.297544,24.4193182 161.080804,25.1128846 C160.864065,25.806451 160.723906,26.3757535 160.593863,26.7947832 Z" id="Path" fill="url(#linearGradient-7)"></path>
            <path d="M196.799476,18.6887255 C196.828006,20.0302819 196.597419,21.364742 196.120358,22.6189353 C195.701373,23.7132047 195.050738,24.7039437 194.213051,25.5232448 C193.374473,26.3196728 192.373991,26.9258758 191.279843,27.3005087 C190.052085,27.7183261 188.76203,27.9235621 187.465227,27.9073794 C186.166239,27.9208682 184.87501,27.7056634 183.650612,27.2716101 C182.552486,26.8706909 181.552504,26.2401603 180.717404,25.4220997 C179.880068,24.6081296 179.229327,23.6221586 178.810096,22.5322395 C178.347054,21.3043446 178.116755,20.0009493 178.130979,18.6887255 C178.118053,17.3860097 178.348369,16.0923233 178.810096,14.8741101 C179.229082,13.7798408 179.879716,12.7891017 180.717404,11.9698007 C181.556854,11.1607458 182.555877,10.535741 183.650612,10.1347395 C184.867063,9.68799641 186.154997,9.46762745 187.450778,9.48452098 C188.752609,9.46664044 190.046329,9.69206126 191.265393,10.1491888 C192.360313,10.5538975 193.359171,11.1817508 194.198601,11.9929196 C195.036289,12.8122206 195.686923,13.8029597 196.105909,14.897229 C196.580986,16.1040682 196.816557,17.3918573 196.799476,18.6887255 L196.799476,18.6887255 Z M184.344178,18.6887255 C184.344178,20.1336556 184.618715,21.2462517 185.182238,22.0120647 C185.712156,22.766167 186.587496,23.2011188 187.508575,23.1680087 C188.505577,23.1680087 189.27139,22.7778776 189.806014,21.9976154 C190.340638,21.2173531 190.600726,20.104757 190.615175,18.6887255 C190.629624,17.2726941 190.340638,16.1745472 189.791565,15.394285 C189.242491,14.6140227 188.476678,14.2383409 187.479677,14.2383409 C186.482675,14.2383409 185.716862,14.628472 185.167788,15.394285 C184.618715,16.1600979 184.348513,17.2582448 184.348513,18.6887255 L184.344178,18.6887255 Z" id="Shape" fill="url(#linearGradient-8)"></path>
            <path d="M205.805725,27.3005087 C205.436539,27.4031851 205.059615,27.4756705 204.678679,27.5172483 C204.151817,27.5873598 203.620756,27.6211545 203.089256,27.6185531 C202.620142,27.621186 202.151526,27.5873683 201.687674,27.5172483 C201.306475,27.4591613 200.944763,27.3105124 200.632875,27.0837692 C200.341478,26.8557319 200.112772,26.5574202 199.968207,26.2168112 C199.79805,25.7547493 199.719525,25.2639672 199.737018,24.7718811 L199.737018,14.0938479 C199.720215,13.6087059 199.824499,13.1270167 200.040454,12.6922657 C200.254973,12.2855482 200.549931,11.9266825 200.907412,11.6374668 C201.339897,11.3037832 201.810365,11.0224725 202.308994,10.7994073 C202.892148,10.5415932 203.490499,10.3196243 204.100707,10.1347395 C204.754671,9.94124027 205.420819,9.79159836 206.094711,9.68681119 C206.778613,9.58307699 207.469239,9.52995197 208.160961,9.52786888 C209.302455,9.52786888 210.198312,9.74460839 210.86298,10.1925367 C211.527648,10.640465 211.860086,11.3484808 211.860086,12.3454825 C211.86265,12.6784831 211.813913,13.009901 211.715489,13.328035 C211.631446,13.6308657 211.510106,13.922082 211.354256,14.194993 C210.86298,14.194993 210.342805,14.2238916 209.82263,14.2672395 C209.308359,14.3100926 208.796974,14.3824583 208.291004,14.483979 C207.799728,14.5851241 207.322901,14.6718199 206.889422,14.7874143 C206.502358,14.87548 206.124868,15.00131 205.762377,15.1630962 L205.805725,27.3005087 Z" id="Path" fill="url(#linearGradient-9)"></path>
            <path d="M231.294291,24.1939091 C231.178697,25.3065052 230.846363,26.159014 230.311739,26.7514353 C229.777115,27.3438566 228.996852,27.647292 227.985401,27.647292 C227.272334,27.6625663 226.569985,27.4719285 225.962499,27.0982185 C225.370078,26.7225367 224.734309,26.1012168 224.040742,25.2342587 L220.515113,20.8127727 L220.515113,27.3005087 C220.255025,27.3438566 219.864894,27.4161031 219.359169,27.502799 C218.848405,27.5897137 218.331199,27.633217 217.813094,27.6328427 C217.34398,27.6356353 216.875363,27.6018176 216.411511,27.5316976 C216.030313,27.4736106 215.6686,27.3249617 215.356712,27.0982185 C215.062192,26.8732917 214.832795,26.574078 214.692045,26.2312605 C214.521887,25.7691986 214.443362,25.2784165 214.460856,24.7863304 L214.460856,4.15272902 C214.720943,4.08048252 215.111074,4.00823601 215.6168,3.92154021 C216.127563,3.83462549 216.64477,3.79133672 217.162875,3.79133672 C217.631989,3.78870385 218.100605,3.82252153 218.564457,3.89264161 C218.945656,3.95072856 219.307368,4.09937746 219.619256,4.32612063 C219.910654,4.55415798 220.139359,4.85246963 220.283924,5.19307867 C220.454081,5.65514054 220.532607,6.14592266 220.515113,6.63800874 L220.515113,16.0300542 L226.627167,9.77350699 C227.855358,9.77350699 228.852359,10.0480437 229.603723,10.5971171 C230.355087,11.1461906 230.730768,11.8253077 230.730768,12.6633671 C230.730699,12.9984889 230.672018,13.3310163 230.557377,13.6459196 C230.425444,13.9773792 230.239949,14.2849104 230.008303,14.5562255 C229.715411,14.9118336 229.39143,15.24065 229.0402,15.538778 C228.650069,15.8855612 228.187691,16.2756923 227.667517,16.7236206 L225.601267,18.5008846 L231.294291,24.1939091 Z" id="Path" fill="url(#linearGradient-10)"></path>
            <path d="M248.315567,22.171007 C248.315567,23.9771696 247.63645,25.393201 246.292665,26.4046521 C244.94888,27.4161031 242.954877,27.9362785 240.310655,27.9362785 C239.381661,27.9365136 238.454074,27.8640458 237.536389,27.7195385 C236.776214,27.6044111 236.036546,27.3805641 235.340095,27.0548706 C234.782972,26.7941442 234.293466,26.4084729 233.909615,25.9278252 C233.560725,25.4669449 233.377458,24.9018723 233.38944,24.3239528 C233.369727,23.8177302 233.495056,23.316413 233.750672,22.8790227 C233.974594,22.5037352 234.263222,22.1710789 234.603181,21.8964703 C235.359684,22.307032 236.15306,22.645668 236.972866,22.9079213 C237.967922,23.2221222 239.007231,23.3733831 240.050567,23.3558497 C240.787482,23.3558497 241.351004,23.2547045 241.741135,23.037965 C242.131267,22.8212255 242.333557,22.5322395 242.333557,22.1854563 C242.337849,21.8668523 242.172858,21.5698691 241.900078,21.4051941 C241.611092,21.2173531 241.134265,21.0584108 240.484046,20.9428164 L239.414798,20.7260769 C237.348548,20.3214965 235.816922,19.6857273 234.805471,18.8187692 C233.79402,17.9518112 233.288295,16.7091713 233.288295,15.0908497 C233.255925,13.4253598 234.072445,11.8576418 235.45569,10.929451 C236.20858,10.4214314 237.044919,10.0497253 237.92652,9.8313042 C238.963551,9.55776115 240.032965,9.42651492 241.105366,9.44117308 C241.933311,9.43611962 242.760099,9.50380988 243.576197,9.64346329 C244.271329,9.76121892 244.950262,9.96004933 245.599099,10.2358846 C246.120584,10.4692745 246.584301,10.8145955 246.957333,11.2473357 C247.289339,11.6655395 247.463292,12.1873976 247.448609,12.7211643 C247.465412,13.2063063 247.361129,13.6879955 247.145174,14.1227465 C246.957399,14.4976895 246.697103,14.8316538 246.379361,15.105299 C246.107667,14.9534819 245.822228,14.8276948 245.526852,14.7296171 C245.15117,14.5995734 244.732141,14.483979 244.284212,14.3683846 C243.836284,14.2527902 243.373906,14.1805437 242.911529,14.1082972 C242.496159,14.038722 242.07559,14.004883 241.65444,14.0071521 C240.874177,14.0071521 240.267307,14.0938479 239.833828,14.2672395 C239.400349,14.4406311 239.198059,14.7296171 239.198059,15.105299 C239.194416,15.3670105 239.332606,15.6102251 239.559291,15.7410682 C239.79048,15.9000105 240.252858,16.0589528 240.917525,16.2034458 L242.015672,16.4490839 C244.298662,16.9692587 245.916983,17.6917238 246.870637,18.6020297 C247.824291,19.5123357 248.315567,20.7260769 248.315567,22.171007 Z" id="Path" fill="url(#linearGradient-11)"></path>
            <path d="M32.8692692,0.781707168 C26.5982727,-0.20951486 10.8369755,-1.64866521 0,6.39381556 L2.0229021,9.11461888 L2.66878584,9.98157692 L4.04146941,11.8325323 L4.68735315,12.6994904 L6.71025524,15.4202937 C10.9251163,12.2920201 16.696167,11.3051329 21.5670262,11.1259615 C19.9934974,15.7063899 17.376729,20.9153628 13.1185201,24.072535 C10.0119205,26.3815332 7.12350524,26.9768444 3.75681818,26.0087413 L1.08080769,36.6795498 C7.73615559,38.596972 14.0403855,37.4020149 19.8186608,33.1091276 C24.5753706,29.5806084 28.3639773,24.3282876 31.0891154,17.4952133 C33.2565105,12.0319327 34.2679615,6.75360315 34.7418986,3.28866084 L35.0308846,1.12126573 L32.8692692,0.781707168 Z" id="Path" fill="url(#linearGradient-12)"></path>
        </g>
    </g>
</svg>