<?xml version="1.0" encoding="UTF-8"?>
<svg width="80px" height="80px" viewBox="0 0 80 80" version="1.1" xmlns="http://www.w3.org/2000/svg" xmlns:xlink="http://www.w3.org/1999/xlink">
    <!-- Generator: Sketch 63.1 (92452) - https://sketch.com -->
    <title>Group 11 Copy</title>
    <desc>Created with Sketch.</desc>
    <defs>
        <linearGradient x1="83.8153894%" y1="24.4955323%" x2="34.6170838%" y2="93.8042697%" id="linearGradient-1">
            <stop stop-color="#76B696" offset="1%"></stop>
            <stop stop-color="#77A4B8" offset="23%"></stop>
            <stop stop-color="#76A1B6" offset="27%"></stop>
            <stop stop-color="#6A7899" offset="75%"></stop>
            <stop stop-color="#65688E" offset="100%"></stop>
        </linearGradient>
    </defs>
    <g id="Desktop-Version" stroke="none" stroke-width="1" fill="none" fill-rule="evenodd">
        <g id="Group-11-Copy">
            <g id="Group-55">
                <g id="icon-3" fill="#EAFAF3">
                    <path d="M40,80 C62.0913887,80 80,62.0913887 80,40 C80,17.9086101 62.0913887,0 40,0 C17.9086101,0 0,17.9086101 0,40 C0,62.0913887 17.9086101,80 40,80 Z" id="Ellipse-10"></path>
                </g>
                <path d="M54.7650552,52.890884 C54.5877072,52.8312155 54.2794199,52.930663 53.9910221,53.0334254 C53.8421592,53.0985201 53.6847736,53.1420523 53.5236188,53.1627072 C53.5028164,53.1648966 53.4818675,53.1602413 53.4639503,53.1494475 C53.2982044,53.028453 53.0280387,52.290884 53.1324586,51.6411602 C53.1506906,51.5367403 53.2087017,51.2798343 53.2866022,50.9234807 C53.4274862,50.288674 53.6446133,49.3107735 53.8633978,48.1969613 C53.8733425,48.1505525 53.8816298,48.1008287 53.8899171,48.0527624 C53.9164365,47.9267956 53.9396409,47.8041436 53.9645028,47.6765193 C53.9645028,47.631768 53.9794199,47.5870166 53.9877072,47.5422652 C54.1633978,46.6041436 54.3291436,45.6046961 54.4484807,44.6417127 C54.4484807,44.5936464 54.4600829,44.5455801 54.4650552,44.4991713 C54.5015193,44.2024862 54.533011,43.9107735 54.5578729,43.6273481 C54.5578729,43.5842541 54.5578729,43.5395028 54.5694751,43.4964088 C54.6184061,42.9531183 54.6366671,42.4075011 54.6241713,41.8621547 C54.9824285,40.6304847 55.1643474,39.3542625 55.1645028,38.071547 C55.1515262,33.3424218 52.7103714,28.9514729 48.7004144,26.4444751 L49.2788674,26.6864641 L49.3948895,26.2273481 C49.5092541,25.6538674 49.6236188,25.0803867 49.0501381,25.0803867 C48.4766575,25.0803867 48.1385359,25.4201657 47.4042818,25.7168508 C47.3434859,25.7359754 47.2805966,25.7476628 47.216989,25.7516575 C47.140491,25.7657399 47.0626676,25.7712987 46.9849448,25.768232 C45.2628453,25.5395028 44.3446133,25.4251381 42.6241713,27.4903315 C42.395442,27.8350829 42.6241713,28.0638122 42.1650552,28.6372928 C41.933011,28.9273481 40.6733425,30.3593923 40.6733425,30.3593923 C40.4446133,30.7019337 40.673895,31.1604972 41.3611878,31.7350829 C41.6926796,32.0168508 42.1899171,31.6472376 42.4368785,31.6505525 L42.3440608,31.9671271 L41.7606354,32.0997238 L41.6777624,32.1179558 C41.6777624,32.1179558 41.6678177,32.1627072 41.6661602,32.1676796 C41.5004144,32.9002762 41.9976519,33.1041436 42.0175414,33.1223757 C42.2458713,33.3026467 42.5243051,33.408 42.814779,33.4240331 C43.1976519,33.4571823 43.656768,33.1124309 43.656768,33.1124309 C43.8871547,32.8837017 44.0098066,32.4494475 44.575,32.5389503 C45.3788674,32.6533149 45.836326,33.571547 45.4335635,34.6936464 C47.1743773,34.0871476 48.3443131,32.4497687 48.3540055,30.6063536 C48.3532235,29.90378 48.1796139,29.2121874 47.8484807,28.5925414 C48.5230663,29.3781768 49.7180939,31.3074586 48.3622928,33.8035912 C47.8252762,34.7980663 46.5390884,35.3765193 45.3357735,36.2400552 C45.2628453,36.2930939 45.1866022,36.3444751 45.1103591,36.4058011 C44.8087017,36.6179558 44.494337,36.831768 44.1672652,37.0472376 L43.956768,37.1881215 L43.1081492,37.7334254 C40.0650552,39.7058011 36.6092541,41.9417127 34.5970994,45.7986188 C34.5970994,45.7986188 34.5291436,45.9643646 34.4313536,46.208011 C34.4098066,46.2593923 34.3882597,46.3140884 34.3650552,46.3737569 C34.0982044,47.0367403 33.6506906,48.1621547 33.2529006,49.2328729 C33.2379834,49.2709945 33.2247238,49.3074586 33.2114641,49.3455801 C33.034116,49.8229282 32.8683702,50.2837017 32.7357735,50.6814917 C32.6206987,51.0387807 32.3867203,51.3458774 32.0727901,51.5516575 C31.6546139,51.7545052 31.207173,51.8904154 30.7468232,51.9544199 C30.5346685,51.9743094 30.3225138,51.9842541 30.1186464,51.9842541 C29.6750134,51.9010455 29.2415921,51.7704634 28.8258287,51.5947514 C27.1783149,50.7875691 26.1606354,49.7483425 25.8009669,48.5069061 C25.7711326,48.4008287 25.7462707,48.2930939 25.7247238,48.1870166 C25.6048741,47.509687 25.6388615,46.8140769 25.8241713,46.1516575 C26.0877072,45.1472376 26.6081492,44.190884 27.1070442,43.3787293 C27.2783185,43.1193584 27.4625291,42.8687657 27.6589779,42.6279006 C27.7484807,42.5135359 27.8412983,42.3925414 27.934116,42.2698895 C27.9639503,42.231768 27.9904696,42.1953039 28.0186464,42.1571823 C28.6319061,41.328453 29.2600829,40.3339779 29.0993094,39.3726519 C28.9418508,38.4428177 28.1694751,37.7483425 27.4020718,37.5129834 L27.2860497,37.4781768 C27.1485729,37.4419243 27.0072133,37.4224457 26.8650552,37.4201657 C26.601548,37.4121156 26.3435351,37.4965562 26.1357735,37.6588398 C25.5109116,38.1776243 25.5921271,38.7361878 25.6385359,38.8936464 C25.6752066,39.1074153 25.8290174,39.2823751 26.036326,39.3461326 C26.1125691,39.3610497 26.2020718,39.369337 26.2866022,39.3776243 C26.6678177,39.4140884 27.0639503,39.4505525 27.0921271,40.0273481 C27.1153315,40.5013812 26.6346685,41.2455801 26.0744475,42.1074586 C25.5772099,42.8848066 24.9987569,43.7649171 24.6490331,44.6748619 C23.856768,46.7383978 23.856768,48.5814917 24.6490331,50.1560773 C26.0959945,53.0201657 29.7871547,54.3262431 31.8142265,54.9146409 L47.6827348,54.9146409 C47.9512431,54.5914365 48.034116,53.8770718 48.0142265,53.6980663 C47.994337,53.548895 47.8236188,53.4709945 47.6744475,53.4013812 C47.5923996,53.3751863 47.5175207,53.3303725 47.455663,53.270442 C47.3810773,53.1444751 47.7125691,52.070442 47.9529006,51.2814917 C48.0506906,50.9698895 48.1385359,50.6433702 48.214779,50.3417127 C48.2703476,50.2515746 48.3201705,50.1580184 48.3639503,50.0616022 C48.3904696,50.0019337 48.4153315,49.9406077 48.4385359,49.8792818 L48.4385359,49.8676796 C48.4584254,49.811326 48.4783149,49.7549724 48.4948895,49.7019337 C48.5616134,49.4679668 48.5956378,49.2258917 48.5959945,48.9825967 C48.6116588,47.5745044 47.4847073,46.4193791 46.0766575,46.4002762 C45.454015,46.4022247 44.8550228,46.6389805 44.3993094,47.0632597 C44.8302486,46.2859116 45.7501381,45.7372928 46.8175414,45.7372928 C47.5152211,45.7299769 48.1920814,45.9748237 48.7236188,46.4267956 C48.8450413,46.5318989 48.9560517,46.6484598 49.0551105,46.7748619 L49.1562155,46.7201657 L49.653453,46.4483425 L49.7611878,46.388674 C49.7475654,46.3031162 49.7398125,46.2167267 49.7379834,46.1301105 C49.7395904,46.0518638 49.746234,45.9738018 49.7578729,45.8964088 C49.8026304,45.5176872 49.9499122,45.1583654 50.1838398,44.8571823 L50.1838398,44.8837017 C50.1354883,45.0626061 50.1104195,45.247001 50.1092541,45.4323204 C50.1098139,45.6258796 50.1377139,45.8183893 50.1921271,46.0041436 C50.2232766,46.2174596 50.2709335,46.4280365 50.3346685,46.6339779 C50.4305216,47.0098504 50.499754,47.3920134 50.5418508,47.7776243 L50.5617403,47.9433702 C50.5617403,48.0030387 50.5766575,48.0627072 50.5832873,48.1240331 C50.5899171,48.1853591 50.5948895,48.2185083 50.5998619,48.268232 C50.7447302,49.5561619 50.8232869,50.8506882 50.835221,52.1466851 L50.835221,52.229558 C50.7987569,52.7599448 50.8087017,52.7814917 51.1832873,52.9870166 L51.1998619,52.9953039 C51.5578729,53.1925414 51.7617403,53.9732044 51.6175414,54.3212707 L51.6009669,54.3627072 L51.6357735,54.3892265 C51.7941217,54.5096869 51.970266,54.6047489 52.1578729,54.6709945 C52.3004144,54.7140884 52.5937845,54.8367403 52.8208564,54.9196133 L55.4727901,54.9196133 C55.7358827,54.8022949 55.9160886,54.5531682 55.9451657,54.2665746 C55.9451657,54.029558 55.114779,53.0151934 54.7650552,52.890884 Z M43.7810773,28.2925414 C43.6978512,28.3171927 43.6131525,28.3365682 43.5274862,28.3505525 C43.4708668,28.3488891 43.4162676,28.3291405 43.3716851,28.2941989 L43.3517956,28.2743094 L42.6208564,29.0483425 C42.6208564,29.0483425 43.2523481,28.1781768 43.2722376,28.1433702 C43.333556,28.0433938 43.4339408,27.9736655 43.5490331,27.951105 L44.354558,27.951105 C44.1743255,28.0823426 43.9823487,28.1966409 43.7810773,28.2925414 Z" id="Shape" fill="url(#linearGradient-1)" fill-rule="nonzero"></path>
            </g>
        </g>
    </g>
</svg>