<?xml version="1.0" encoding="UTF-8"?>
<svg width="80px" height="80px" viewBox="0 0 80 80" version="1.1" xmlns="http://www.w3.org/2000/svg" xmlns:xlink="http://www.w3.org/1999/xlink">
    <!-- Generator: Sketch 63.1 (92452) - https://sketch.com -->
    <title>Group 41</title>
    <desc>Created with Sketch.</desc>
    <defs>
        <linearGradient x1="29.3388993%" y1="9.52971458%" x2="71.0606118%" y2="98.3922193%" id="linearGradient-1">
            <stop stop-color="#FC4B0E" offset="0%"></stop>
            <stop stop-color="#F84F11" offset="12%"></stop>
            <stop stop-color="#EC5A18" offset="25%"></stop>
            <stop stop-color="#D86C25" offset="37%"></stop>
            <stop stop-color="#BC8636" offset="50%"></stop>
            <stop stop-color="#98A74D" offset="62%"></stop>
            <stop stop-color="#83BA5A" offset="69%"></stop>
            <stop stop-color="#65A46E" offset="87%"></stop>
            <stop stop-color="#5B9C75" offset="92%"></stop>
        </linearGradient>
    </defs>
    <g id="Desktop-Version" stroke="none" stroke-width="1" fill="none" fill-rule="evenodd">
        <g id="Group-41">
            <path d="M40,80 C62.0913887,80 80,62.0913887 80,40 C80,17.9086101 62.0913887,0 40,0 C17.9086101,0 0,17.9086101 0,40 C0,62.0913887 17.9086101,80 40,80 Z" id="Ellipse-10" fill="#FFE3DE"></path>
            <g id="bulbul_1" transform="translate(26.549451, 23.186813)" fill="url(#linearGradient-1)" fill-rule="nonzero">
                <path d="M26.7497802,32.7315385 C26.6076857,32.5710811 26.4824839,32.3964246 26.3761538,32.2103297 C24.9825275,29.0849451 23.0882418,26.2323077 21.3789011,23.29 C21.0501099,22.7295604 20.1702198,22.1242857 20.6708791,21.5246154 C20.9062637,21.2425275 21.6759341,22.1635165 22.2102198,22.5278022 C23.1554945,23.176044 24.012967,23.9643956 25.1151648,24.4706593 C25.2347253,23.8765934 24.8947253,23.6225275 24.6873626,23.3497802 C20.980989,18.3245055 17.5305495,13.132967 13.9026374,8.06472527 C12.3296703,5.85846154 11.1658242,3.31032967 8.87923077,1.62714286 C9.27340659,0.954615385 10.1514286,0.861208791 10.5605495,0.226043956 C10.7473626,0.226043956 10.9192308,0.198021978 11.0051648,0 C10.8276923,0.0224175824 10.6315385,0.0205494505 10.5549451,0.222307692 C7.72098901,0.685604396 4.78241758,0.864945055 2.57989011,3.08428571 C1.87747253,3.79230769 0.812637363,3.57186813 0,4.01835165 L0,4.24065934 C0.282087912,4.33593407 0.56043956,4.43681319 0.846263736,4.52648352 C3.83527473,5.47362637 4.5432967,6.96626374 3.30846154,9.77406593 C2.52070117,11.4436327 2.57129919,13.3878442 3.44483516,15.0141758 C4.14770986,16.3686933 5.07928102,17.5916174 6.19846154,18.629011 C9.40417582,21.6516484 13.2973626,23.0471429 17.6893407,23.1125275 C18.3506593,23.1237363 18.6850549,23.346044 18.9671429,23.9158242 C19.9721978,25.9464835 21.0220879,27.9565934 22.0701099,29.9592308 C22.411978,30.6112088 22.836044,31.223956 23.4543956,29.9125275 C24.069011,31.5546154 25.0871429,32.6642857 26.3014286,33.6132967 C27.1925275,33.6917582 26.5648352,33.0098901 26.7497802,32.7315385 Z M21.2705495,20.3794505 L21.2462637,20.3794505 L21.2462637,20.3458242 L21.2705495,20.3794505 Z" id="Shape"></path>
            </g>
        </g>
    </g>
</svg>